<?xml version="1.0" encoding="utf-8"?>
<!-- Generator: Adobe Illustrator 24.1.1, SVG Export Plug-In . SVG Version: 6.00 Build 0)  -->
<svg version="1.1" id="Layer_1" xmlns="http://www.w3.org/2000/svg" xmlns:xlink="http://www.w3.org/1999/xlink" x="0px" y="0px"
	 viewBox="0 0 500 500" style="enable-background:new 0 0 500 500;" xml:space="preserve">
<style type="text/css">
	.st0{fill-rule:evenodd;clip-rule:evenodd;fill:#2D8CFF;}
</style>
<g>
	<path class="st0" d="M364.68,233.58c1.4,2.41,1.85,5.15,2,8.23l0.2,4.1v28.7l0.2,4.11c0.4,6.71,5.35,11.67,12.11,12.09l4.09,0.2
		v-45.1l0.2-4.1c0.17-3.04,0.62-5.83,2.04-8.26c4.55-7.83,14.58-10.49,22.41-5.95c2.48,1.44,4.54,3.51,5.98,6
		c1.39,2.41,1.83,5.2,2,8.21l0.2,4.09v28.71l0.2,4.11c0.42,6.74,5.33,11.7,12.12,12.09l4.08,0.2v-49.2
		c0-18.12-14.68-32.81-32.8-32.81c-9.42-0.01-18.39,4.04-24.61,11.11c-6.22-7.07-15.19-11.12-24.61-11.12
		c-6.81,0-13.13,2.07-18.37,5.64c-3.2-3.57-10.34-5.64-14.45-5.64v82.02l4.1-0.2c6.86-0.45,11.83-5.28,12.09-12.09l0.22-4.11v-28.7
		l0.2-4.1c0.17-3.1,0.6-5.82,2-8.24c2.94-5.06,8.35-8.17,14.2-8.17C356.33,225.4,361.75,228.52,364.68,233.58z M83.9,290.81l4.1,0.2
		h61.51l-0.2-4.09c-0.56-6.74-5.33-11.67-12.09-12.11l-4.1-0.2H96.21l49.2-49.22l-0.2-4.09c-0.32-6.81-5.29-11.73-12.09-12.11
		l-4.1-0.19l-61.51-0.02l0.2,4.1c0.54,6.68,5.38,11.71,12.09,12.09l4.11,0.21h36.9l-49.2,49.22l0.2,4.1
		C72.21,285.48,77.09,290.38,83.9,290.81L83.9,290.81z M301.56,221c16.01,16.01,16.02,41.98,0,57.99l0,0
		c-16.03,16.01-41.99,16.01-58.02,0c-16.01-16.01-16.01-41.99,0-58c7.69-7.69,18.11-12.01,28.98-12.01
		C283.42,208.98,293.87,213.3,301.56,221L301.56,221z M289.96,232.61c9.6,9.61,9.6,25.19,0,34.8c-9.61,9.6-25.19,9.6-34.8,0
		c-9.6-9.61-9.6-25.19,0-34.8C264.77,223.01,280.35,223.01,289.96,232.61z M186.46,208.99c10.87,0,21.3,4.33,28.98,12.01
		c16.02,16.01,16.02,41.99,0,57.99c-16.03,16.01-41.99,16.01-58.02,0c-16.01-16.01-16.01-41.99,0-58
		c7.69-7.69,18.11-12.01,28.98-12.01H186.46z M203.83,232.6c9.61,9.61,9.61,25.19,0,34.81c-9.61,9.6-25.19,9.6-34.8,0
		c-9.6-9.61-9.6-25.19,0-34.8C178.65,223,194.22,223,203.83,232.6L203.83,232.6z"/>
</g>
</svg>
